<?xml version="1.0" encoding="UTF-8"?>
<svg xmlns="http://www.w3.org/2000/svg" viewBox="0 0 94 82" width="282" height="246">
	<text x="18" y="10" font-size="6" textLength="10">j = 0</text>
	<text x="34" y="10" font-size="6" textLength="10">j = 1</text>
	<text x="50" y="10" font-size="6" textLength="10">j = 2</text>
	<text x="66" y="10" font-size="6" textLength="10">j = 3</text>
	<text x="2" y="25" font-size="6" textLength="10">i = 0</text>
	<text x="2" y="43" font-size="6" textLength="10">i = 1</text>
	<text x="2" y="61" font-size="6" textLength="10">i = 2</text>
	<rect x="16" y="16" width="14" height="14" fill="#bfbfbf" />
	<rect x="32" y="16" width="14" height="14" fill="#bfbfbf" />
	<rect x="48" y="16" width="14" height="14" fill="#bfbfbf" />
	<rect x="64" y="16" width="14" height="14" fill="#bfbfbf" />
	<rect x="16" y="34" width="14" height="14" fill="#bfbfbf" />
	<rect x="32" y="34" width="14" height="14" fill="#bfbfbf" />
	<rect x="48" y="34" width="14" height="14" fill="#bfbfbf" />
	<rect x="64" y="34" width="14" height="14" fill="#bfbfbf" />
	<rect x="16" y="52" width="14" height="14" fill="#bfbfbf" />
	<rect x="32" y="52" width="14" height="14" fill="#bfbfbf" />
	<rect x="48" y="52" width="14" height="14" fill="#bfbfbf" />
	<rect x="64" y="52" width="14" height="14" fill="#bfbfbf" />
	<path d="M 23 23 23 41 23 59 39 23 39 41 39 59 55 23 55 41 55 59 71 23 71 41 71 59" stroke-width="1" stroke="#000000" stroke-linecap="round" stroke-linejoin="round" fill="none" />
</svg>
