<?xml version="1.0" encoding="UTF-8"?>
<svg xmlns="http://www.w3.org/2000/svg" viewBox="0 0 222 172" width="666" height="516">
	<text x="18" y="10" font-size="6" textLength="10">j = 0</text>
	<text x="34" y="10" font-size="6" textLength="10">j = 1</text>
	<text x="50" y="10" font-size="6" textLength="10">j = 2</text>
	<text x="66" y="10" font-size="6" textLength="10">j = 3</text>
	<text x="82" y="10" font-size="6" textLength="10">j = 4</text>
	<text x="98" y="10" font-size="6" textLength="10">j = 5</text>
	<text x="114" y="10" font-size="6" textLength="10">j = 6</text>
	<text x="130" y="10" font-size="6" textLength="10">j = 7</text>
	<text x="146" y="10" font-size="6" textLength="10">j = 8</text>
	<text x="162" y="10" font-size="6" textLength="10">j = 9</text>
	<text x="178" y="10" font-size="6" textLength="10">j = 10</text>
	<text x="194" y="10" font-size="6" textLength="10">j = 11</text>
	<text x="2" y="25" font-size="6" textLength="10">i = 0</text>
	<text x="2" y="43" font-size="6" textLength="10">i = 1</text>
	<text x="2" y="61" font-size="6" textLength="10">i = 2</text>
	<text x="2" y="79" font-size="6" textLength="10">i = 3</text>
	<text x="2" y="97" font-size="6" textLength="10">i = 4</text>
	<text x="2" y="115" font-size="6" textLength="10">i = 5</text>
	<text x="2" y="133" font-size="6" textLength="10">i = 6</text>
	<text x="2" y="151" font-size="6" textLength="10">i = 7</text>
	<rect x="16" y="16" width="14" height="14" fill="#bfbfbf" />
	<rect x="32" y="16" width="14" height="14" fill="#bfbfbf" />
	<rect x="48" y="16" width="14" height="14" fill="#bfbfbf" />
	<rect x="64" y="16" width="14" height="14" fill="#bfbfbf" />
	<rect x="80" y="16" width="14" height="14" fill="#bfbfbf" />
	<rect x="96" y="16" width="14" height="14" fill="#bfbfbf" />
	<rect x="112" y="16" width="14" height="14" fill="#bfbfbf" />
	<rect x="128" y="16" width="14" height="14" fill="#bfbfbf" />
	<rect x="144" y="16" width="14" height="14" fill="#bfbfbf" />
	<rect x="160" y="16" width="14" height="14" fill="#bfbfbf" />
	<rect x="176" y="16" width="14" height="14" fill="#bfbfbf" />
	<rect x="192" y="16" width="14" height="14" fill="#bfbfbf" />
	<rect x="16" y="34" width="14" height="14" fill="#bfbfbf" />
	<rect x="32" y="34" width="14" height="14" fill="#bfbfbf" />
	<rect x="48" y="34" width="14" height="14" fill="#bfbfbf" />
	<rect x="64" y="34" width="14" height="14" fill="#bfbfbf" />
	<rect x="80" y="34" width="14" height="14" fill="#bfbfbf" />
	<rect x="96" y="34" width="14" height="14" fill="#bfbfbf" />
	<rect x="112" y="34" width="14" height="14" fill="#bfbfbf" />
	<rect x="128" y="34" width="14" height="14" fill="#bfbfbf" />
	<rect x="144" y="34" width="14" height="14" fill="#bfbfbf" />
	<rect x="160" y="34" width="14" height="14" fill="#bfbfbf" />
	<rect x="176" y="34" width="14" height="14" fill="#bfbfbf" />
	<rect x="192" y="34" width="14" height="14" fill="#bfbfbf" />
	<rect x="16" y="52" width="14" height="14" fill="#bfbfbf" />
	<rect x="32" y="52" width="14" height="14" fill="#bfbfbf" />
	<rect x="48" y="52" width="14" height="14" fill="#bfbfbf" />
	<rect x="64" y="52" width="14" height="14" fill="#bfbfbf" />
	<rect x="80" y="52" width="14" height="14" fill="#bfbfbf" />
	<rect x="96" y="52" width="14" height="14" fill="#bfbfbf" />
	<rect x="112" y="52" width="14" height="14" fill="#bfbfbf" />
	<rect x="128" y="52" width="14" height="14" fill="#bfbfbf" />
	<rect x="144" y="52" width="14" height="14" fill="#bfbfbf" />
	<rect x="160" y="52" width="14" height="14" fill="#bfbfbf" />
	<rect x="176" y="52" width="14" height="14" fill="#bfbfbf" />
	<rect x="192" y="52" width="14" height="14" fill="#bfbfbf" />
	<rect x="16" y="70" width="14" height="14" fill="#bfbfbf" />
	<rect x="32" y="70" width="14" height="14" fill="#bfbfbf" />
	<rect x="48" y="70" width="14" height="14" fill="#bfbfbf" />
	<rect x="64" y="70" width="14" height="14" fill="#bfbfbf" />
	<rect x="80" y="70" width="14" height="14" fill="#bfbfbf" />
	<rect x="96" y="70" width="14" height="14" fill="#bfbfbf" />
	<rect x="112" y="70" width="14" height="14" fill="#bfbfbf" />
	<rect x="128" y="70" width="14" height="14" fill="#bfbfbf" />
	<rect x="144" y="70" width="14" height="14" fill="#bfbfbf" />
	<rect x="160" y="70" width="14" height="14" fill="#bfbfbf" />
	<rect x="176" y="70" width="14" height="14" fill="#bfbfbf" />
	<rect x="192" y="70" width="14" height="14" fill="#bfbfbf" />
	<rect x="16" y="88" width="14" height="14" fill="#bfbfbf" />
	<rect x="32" y="88" width="14" height="14" fill="#bfbfbf" />
	<rect x="48" y="88" width="14" height="14" fill="#bfbfbf" />
	<rect x="64" y="88" width="14" height="14" fill="#bfbfbf" />
	<rect x="80" y="88" width="14" height="14" fill="#bfbfbf" />
	<rect x="96" y="88" width="14" height="14" fill="#bfbfbf" />
	<rect x="112" y="88" width="14" height="14" fill="#bfbfbf" />
	<rect x="128" y="88" width="14" height="14" fill="#bfbfbf" />
	<rect x="144" y="88" width="14" height="14" fill="#bfbfbf" />
	<rect x="160" y="88" width="14" height="14" fill="#bfbfbf" />
	<rect x="176" y="88" width="14" height="14" fill="#bfbfbf" />
	<rect x="192" y="88" width="14" height="14" fill="#bfbfbf" />
	<rect x="16" y="106" width="14" height="14" fill="#bfbfbf" />
	<rect x="32" y="106" width="14" height="14" fill="#bfbfbf" />
	<rect x="48" y="106" width="14" height="14" fill="#bfbfbf" />
	<rect x="64" y="106" width="14" height="14" fill="#bfbfbf" />
	<rect x="80" y="106" width="14" height="14" fill="#bfbfbf" />
	<rect x="96" y="106" width="14" height="14" fill="#bfbfbf" />
	<rect x="112" y="106" width="14" height="14" fill="#bfbfbf" />
	<rect x="128" y="106" width="14" height="14" fill="#bfbfbf" />
	<rect x="144" y="106" width="14" height="14" fill="#bfbfbf" />
	<rect x="160" y="106" width="14" height="14" fill="#bfbfbf" />
	<rect x="176" y="106" width="14" height="14" fill="#bfbfbf" />
	<rect x="192" y="106" width="14" height="14" fill="#bfbfbf" />
	<rect x="16" y="124" width="14" height="14" fill="#bfbfbf" />
	<rect x="32" y="124" width="14" height="14" fill="#bfbfbf" />
	<rect x="48" y="124" width="14" height="14" fill="#bfbfbf" />
	<rect x="64" y="124" width="14" height="14" fill="#bfbfbf" />
	<rect x="80" y="124" width="14" height="14" fill="#bfbfbf" />
	<rect x="96" y="124" width="14" height="14" fill="#bfbfbf" />
	<rect x="112" y="124" width="14" height="14" fill="#bfbfbf" />
	<rect x="128" y="124" width="14" height="14" fill="#bfbfbf" />
	<rect x="144" y="124" width="14" height="14" fill="#bfbfbf" />
	<rect x="160" y="124" width="14" height="14" fill="#bfbfbf" />
	<rect x="176" y="124" width="14" height="14" fill="#bfbfbf" />
	<rect x="192" y="124" width="14" height="14" fill="#bfbfbf" />
	<rect x="16" y="142" width="14" height="14" fill="#bfbfbf" />
	<rect x="32" y="142" width="14" height="14" fill="#bfbfbf" />
	<rect x="48" y="142" width="14" height="14" fill="#bfbfbf" />
	<rect x="64" y="142" width="14" height="14" fill="#bfbfbf" />
	<rect x="80" y="142" width="14" height="14" fill="#bfbfbf" />
	<rect x="96" y="142" width="14" height="14" fill="#bfbfbf" />
	<rect x="112" y="142" width="14" height="14" fill="#bfbfbf" />
	<rect x="128" y="142" width="14" height="14" fill="#bfbfbf" />
	<rect x="144" y="142" width="14" height="14" fill="#bfbfbf" />
	<rect x="160" y="142" width="14" height="14" fill="#bfbfbf" />
	<rect x="176" y="142" width="14" height="14" fill="#bfbfbf" />
	<rect x="192" y="142" width="14" height="14" fill="#bfbfbf" />
	<path d="M 23 59 39 59 55 59 71 59 87 59 103 59 119 59 135 59 151 59 167 59 183 59 199 59 23 77 39 77 55 77 71 77 87 77 103 77 119 77 135 77 151 77 167 77 183 77 199 77 23 95 39 95 55 95 71 95 87 95 103 95 119 95 135 95 151 95 167 95 183 95 199 95 23 113 39 113 55 113 71 113 87 113 103 113 119 113 135 113 151 113 167 113 183 113 199 113 23 131 39 131 55 131 71 131 87 131 103 131 119 131 135 131 151 131 167 131 183 131 199 131" stroke-width="1" stroke="#000000" stroke-linecap="round" stroke-linejoin="round" fill="none" />
</svg>
