<?xml version="1.0" encoding="UTF-8"?>
<svg xmlns="http://www.w3.org/2000/svg" viewBox="0 0 254 202" width="762" height="606">
	<text x="18" y="10" font-size="6" textLength="10">j = 0</text>
	<text x="34" y="10" font-size="6" textLength="10">j = 1</text>
	<text x="50" y="10" font-size="6" textLength="10">j = 2</text>
	<text x="66" y="10" font-size="6" textLength="10">j = 3</text>
	<text x="82" y="10" font-size="6" textLength="10">j = 4</text>
	<text x="98" y="10" font-size="6" textLength="10">j = 5</text>
	<text x="114" y="10" font-size="6" textLength="10">j = 6</text>
	<text x="130" y="10" font-size="6" textLength="10">j = 7</text>
	<text x="146" y="10" font-size="6" textLength="10">j = 8</text>
	<text x="162" y="10" font-size="6" textLength="10">j = 9</text>
	<text x="178" y="10" font-size="6" textLength="10">j = 10</text>
	<text x="2" y="25" font-size="6" textLength="10">i = 0</text>
	<text x="2" y="43" font-size="6" textLength="10">i = 1</text>
	<text x="2" y="61" font-size="6" textLength="10">i = 2</text>
	<text x="2" y="79" font-size="6" textLength="10">i = 3</text>
	<text x="2" y="97" font-size="6" textLength="10">i = 4</text>
	<text x="2" y="115" font-size="6" textLength="10">i = 5</text>
	<text x="2" y="133" font-size="6" textLength="10">i = 6</text>
	<rect x="16" y="16" width="14" height="14" fill="#bfbfbf" />
	<rect x="32" y="16" width="14" height="14" fill="#bfbfbf" />
	<rect x="48" y="16" width="14" height="14" fill="#bfbfbf" />
	<rect x="64" y="16" width="14" height="14" fill="#bfbfbf" />
	<rect x="80" y="16" width="14" height="14" fill="#bfbfbf" />
	<rect x="96" y="16" width="14" height="14" fill="#bfbfbf" />
	<rect x="112" y="16" width="14" height="14" fill="#bfbfbf" />
	<rect x="128" y="16" width="14" height="14" fill="#bfbfbf" />
	<rect x="144" y="16" width="14" height="14" fill="#bfbfbf" />
	<rect x="160" y="16" width="14" height="14" fill="#bfbfbf" />
	<rect x="176" y="16" width="14" height="14" fill="#bfbfbf" />
	<rect x="16" y="34" width="14" height="14" fill="#bfbfbf" />
	<rect x="32" y="34" width="14" height="14" fill="#bfbfbf" />
	<rect x="48" y="34" width="14" height="14" fill="#bfbfbf" />
	<rect x="64" y="34" width="14" height="14" fill="#bfbfbf" />
	<rect x="80" y="34" width="14" height="14" fill="#bfbfbf" />
	<rect x="96" y="34" width="14" height="14" fill="#bfbfbf" />
	<rect x="112" y="34" width="14" height="14" fill="#bfbfbf" />
	<rect x="128" y="34" width="14" height="14" fill="#bfbfbf" />
	<rect x="144" y="34" width="14" height="14" fill="#bfbfbf" />
	<rect x="160" y="34" width="14" height="14" fill="#bfbfbf" />
	<rect x="176" y="34" width="14" height="14" fill="#bfbfbf" />
	<rect x="16" y="52" width="14" height="14" fill="#bfbfbf" />
	<rect x="32" y="52" width="14" height="14" fill="#bfbfbf" />
	<rect x="48" y="52" width="14" height="14" fill="#bfbfbf" />
	<rect x="64" y="52" width="14" height="14" fill="#bfbfbf" />
	<rect x="80" y="52" width="14" height="14" fill="#bfbfbf" />
	<rect x="96" y="52" width="14" height="14" fill="#bfbfbf" />
	<rect x="112" y="52" width="14" height="14" fill="#bfbfbf" />
	<rect x="128" y="52" width="14" height="14" fill="#bfbfbf" />
	<rect x="144" y="52" width="14" height="14" fill="#bfbfbf" />
	<rect x="160" y="52" width="14" height="14" fill="#bfbfbf" />
	<rect x="176" y="52" width="14" height="14" fill="#bfbfbf" />
	<rect x="16" y="70" width="14" height="14" fill="#bfbfbf" />
	<rect x="32" y="70" width="14" height="14" fill="#bfbfbf" />
	<rect x="48" y="70" width="14" height="14" fill="#bfbfbf" />
	<rect x="64" y="70" width="14" height="14" fill="#bfbfbf" />
	<rect x="80" y="70" width="14" height="14" fill="#bfbfbf" />
	<rect x="96" y="70" width="14" height="14" fill="#bfbfbf" />
	<rect x="112" y="70" width="14" height="14" fill="#bfbfbf" />
	<rect x="128" y="70" width="14" height="14" fill="#bfbfbf" />
	<rect x="144" y="70" width="14" height="14" fill="#bfbfbf" />
	<rect x="160" y="70" width="14" height="14" fill="#bfbfbf" />
	<rect x="176" y="70" width="14" height="14" fill="#bfbfbf" />
	<rect x="16" y="88" width="14" height="14" fill="#bfbfbf" />
	<rect x="32" y="88" width="14" height="14" fill="#bfbfbf" />
	<rect x="48" y="88" width="14" height="14" fill="#bfbfbf" />
	<rect x="64" y="88" width="14" height="14" fill="#bfbfbf" />
	<rect x="80" y="88" width="14" height="14" fill="#bfbfbf" />
	<rect x="96" y="88" width="14" height="14" fill="#bfbfbf" />
	<rect x="112" y="88" width="14" height="14" fill="#bfbfbf" />
	<rect x="128" y="88" width="14" height="14" fill="#bfbfbf" />
	<rect x="144" y="88" width="14" height="14" fill="#bfbfbf" />
	<rect x="160" y="88" width="14" height="14" fill="#bfbfbf" />
	<rect x="176" y="88" width="14" height="14" fill="#bfbfbf" />
	<rect x="16" y="106" width="14" height="14" fill="#bfbfbf" />
	<rect x="32" y="106" width="14" height="14" fill="#bfbfbf" />
	<rect x="48" y="106" width="14" height="14" fill="#bfbfbf" />
	<rect x="64" y="106" width="14" height="14" fill="#bfbfbf" />
	<rect x="80" y="106" width="14" height="14" fill="#bfbfbf" />
	<rect x="96" y="106" width="14" height="14" fill="#bfbfbf" />
	<rect x="112" y="106" width="14" height="14" fill="#bfbfbf" />
	<rect x="128" y="106" width="14" height="14" fill="#bfbfbf" />
	<rect x="144" y="106" width="14" height="14" fill="#bfbfbf" />
	<rect x="160" y="106" width="14" height="14" fill="#bfbfbf" />
	<rect x="176" y="106" width="14" height="14" fill="#bfbfbf" />
	<rect x="16" y="124" width="14" height="14" fill="#bfbfbf" />
	<rect x="32" y="124" width="14" height="14" fill="#bfbfbf" />
	<rect x="48" y="124" width="14" height="14" fill="#bfbfbf" />
	<rect x="64" y="124" width="14" height="14" fill="#bfbfbf" />
	<rect x="80" y="124" width="14" height="14" fill="#bfbfbf" />
	<rect x="96" y="124" width="14" height="14" fill="#bfbfbf" />
	<rect x="112" y="124" width="14" height="14" fill="#bfbfbf" />
	<rect x="128" y="124" width="14" height="14" fill="#bfbfbf" />
	<rect x="144" y="124" width="14" height="14" fill="#bfbfbf" />
	<rect x="160" y="124" width="14" height="14" fill="#bfbfbf" />
	<rect x="176" y="124" width="14" height="14" fill="#bfbfbf" />
	<rect x="15" y="15" width="176" height="34" fill="none" stroke="#e69f00" />
	<rect x="15" y="51" width="176" height="34" fill="none" stroke="#009e73" />
	<rect x="15" y="87" width="176" height="34" fill="none" stroke="#d55e00" />
	<rect x="15" y="123" width="176" height="16" fill="none" stroke="#cc79a7" />
	<text x="210" y="10" font-size="6">row_sums</text>
	<text x="210" y="25" font-size="6" textLength="10">i = 0</text>
	<text x="210" y="43" font-size="6" textLength="10">i = 1</text>
	<text x="210" y="61" font-size="6" textLength="10">i = 2</text>
	<text x="210" y="79" font-size="6" textLength="10">i = 3</text>
	<text x="210" y="97" font-size="6" textLength="10">i = 4</text>
	<text x="210" y="115" font-size="6" textLength="10">i = 5</text>
	<text x="210" y="133" font-size="6" textLength="10">i = 6</text>
	<rect x="224" y="16" width="14" height="14" fill="#bfbfbf" />
	<rect x="224" y="34" width="14" height="14" fill="#bfbfbf" />
	<rect x="224" y="52" width="14" height="14" fill="#bfbfbf" />
	<rect x="224" y="70" width="14" height="14" fill="#bfbfbf" />
	<rect x="224" y="88" width="14" height="14" fill="#bfbfbf" />
	<rect x="224" y="106" width="14" height="14" fill="#bfbfbf" />
	<rect x="224" y="124" width="14" height="14" fill="#bfbfbf" />
	<rect x="223" y="15" width="16" height="34" fill="none" stroke="#e69f00" />
	<rect x="223" y="51" width="16" height="34" fill="none" stroke="#009e73" />
	<rect x="223" y="87" width="16" height="34" fill="none" stroke="#d55e00" />
	<rect x="223" y="123" width="16" height="16" fill="none" stroke="#cc79a7" />
	<text x="18" y="154" font-size="6">col_sums</text>
	<text x="18" y="166" font-size="6" textLength="10">j = 0</text>
	<text x="34" y="166" font-size="6" textLength="10">j = 1</text>
	<text x="50" y="166" font-size="6" textLength="10">j = 2</text>
	<text x="66" y="166" font-size="6" textLength="10">j = 3</text>
	<text x="82" y="166" font-size="6" textLength="10">j = 4</text>
	<text x="98" y="166" font-size="6" textLength="10">j = 5</text>
	<text x="114" y="166" font-size="6" textLength="10">j = 6</text>
	<text x="130" y="166" font-size="6" textLength="10">j = 7</text>
	<text x="146" y="166" font-size="6" textLength="10">j = 8</text>
	<text x="162" y="166" font-size="6" textLength="10">j = 9</text>
	<text x="178" y="166" font-size="6" textLength="10">j = 10</text>
	<rect x="16" y="172" width="14" height="14" fill="#bfbfbf" />
	<rect x="32" y="172" width="14" height="14" fill="#bfbfbf" />
	<rect x="48" y="172" width="14" height="14" fill="#bfbfbf" />
	<rect x="64" y="172" width="14" height="14" fill="#bfbfbf" />
	<rect x="80" y="172" width="14" height="14" fill="#bfbfbf" />
	<rect x="96" y="172" width="14" height="14" fill="#bfbfbf" />
	<rect x="112" y="172" width="14" height="14" fill="#bfbfbf" />
	<rect x="128" y="172" width="14" height="14" fill="#bfbfbf" />
	<rect x="144" y="172" width="14" height="14" fill="#bfbfbf" />
	<rect x="160" y="172" width="14" height="14" fill="#bfbfbf" />
	<rect x="176" y="172" width="14" height="14" fill="#bfbfbf" />
	<rect x="15" y="171" width="176" height="16" fill="none" stroke="#cc79a7" />
	<rect x="14" y="170" width="176" height="16" fill="none" stroke="#009e73" />
	<rect x="16" y="172" width="176" height="16" fill="none" stroke="#d55e00" />
	<rect x="15" y="171" width="176" height="16" fill="none" stroke="#e69f00" />
	<text x="19" y="26" font-size="10" stroke-width="0.25" stroke="#000000" fill="#e69f00">Thread 0</text>
	<text x="19" y="62" font-size="10" stroke-width="0.25" stroke="#000000" fill="#009e73">Thread 1</text>
	<text x="19" y="98" font-size="10" stroke-width="0.25" stroke="#000000" fill="#d55e00">Thread 2</text>
	<text x="19" y="134" font-size="10" stroke-width="0.25" stroke="#000000" fill="#cc79a7">Thread 3</text>
</svg>
